<svg xmlns="http://www.w3.org/2000/svg" width="48.639" height="20.485" viewBox="0 0 48.639 20.485"><defs><style>.a{fill:#767676;opacity:0.271;}</style></defs><path class="a" d="M31.029,14.07a1.163,1.163,0,0,0,0-1.684L21.882,3.359C20.8,2.276,19,3.96,20.2,5.043l6.14,6.14c.481.481.361.842-.361.842H-16.046a1.218,1.218,0,0,0-1.082.722.909.909,0,0,0-.12.481,1.136,1.136,0,0,0,1.2,1.2H25.978c.722,0,.842.361.361.842l-6.14,6.14c-1.082,1.082.6,2.886,1.684,1.684Z" transform="translate(31.39 23.495) rotate(180)"/></svg>